<svg xmlns="http://www.w3.org/2000/svg" xmlns:xlink="http://www.w3.org/1999/xlink" width="500" zoomAndPan="magnify" viewBox="0 0 375 374.999991" height="500" preserveAspectRatio="xMidYMid meet" version="1.0"><defs><g/><clipPath id="a3486fa7e1"><path d="M 79 82 L 296 82 L 296 300 L 79 300 Z M 79 82 " clip-rule="nonzero"/></clipPath><clipPath id="1d68930e53"><path d="M 233.078125 44.78125 L 332.683594 240.664062 L 142.152344 337.546875 L 42.546875 141.667969 Z M 233.078125 44.78125 " clip-rule="nonzero"/></clipPath><clipPath id="16a016bb28"><path d="M 233.078125 44.78125 L 332.683594 240.664062 L 142.152344 337.546875 L 42.546875 141.667969 Z M 233.078125 44.78125 " clip-rule="nonzero"/></clipPath><clipPath id="9fed8cecd4"><path d="M 267.851562 120.949219 C 227.890625 75.246094 159.375 69.597656 115.125 108.347656 C 105.566406 116.71875 97.8125 126.675781 91.890625 137.847656 L 92.171875 137.996094 L 91.890625 137.847656 C 81.742188 156.980469 77.746094 178.714844 80.324219 200.699219 C 82.960938 223.171875 92.332031 244.175781 107.429688 261.441406 C 147.359375 307.097656 215.804688 312.746094 260.007812 274.03125 C 304.257812 235.277344 307.816406 166.648438 267.851562 120.949219 Z M 103.613281 240.929688 C 105.304688 242.863281 106.78125 244.375 107.894531 245.453125 C 115.304688 252.625 125.546875 253.179688 136.390625 253.765625 C 148.914062 254.445312 163.109375 255.214844 175.320312 266.585938 C 185.660156 276.214844 195.8125 284.644531 207.289062 288.484375 C 195.652344 285.011719 185.414062 277.109375 175.339844 268.332031 C 163.191406 257.753906 149.308594 256.535156 137.058594 255.457031 C 126.066406 254.492188 115.683594 253.582031 108.179688 246.195312 C 101.488281 239.605469 95.195312 231.058594 90.386719 221.050781 C 94.726562 229.8125 99.730469 236.492188 103.613281 240.929688 Z M 98.871094 234.070312 C 100.386719 236.109375 101.855469 237.90625 103.195312 239.4375 C 105.078125 241.589844 106.71875 243.242188 107.921875 244.386719 C 115.152344 251.246094 125.203125 251.453125 135.84375 251.667969 C 148.691406 251.929688 163.253906 252.222656 175.597656 264.492188 C 185.730469 274.566406 195.132812 283.300781 206.339844 287.660156 C 195.363281 283.695312 185.578125 275.539062 175.617188 266.261719 C 163.289062 254.777344 149.007812 254.007812 136.410156 253.324219 C 125.652344 252.742188 115.492188 252.195312 108.199219 245.136719 C 106.960938 243.9375 103.199219 240.125 98.871094 234.070312 Z M 175.058594 270.40625 C 163.136719 260.71875 149.679688 259.085938 137.808594 257.648438 C 126.542969 256.285156 115.902344 254.992188 108.164062 247.25 C 102.136719 241.226562 96.449219 233.59375 91.863281 224.757812 C 95.976562 232.46875 100.488281 238.386719 103.996094 242.394531 C 105.511719 244.128906 106.839844 245.507812 107.863281 246.515625 C 115.480469 254.015625 125.945312 254.933594 137.019531 255.910156 C 149.199219 256.980469 163.003906 258.191406 175.042969 268.671875 C 185.390625 277.6875 195.914062 285.789062 207.933594 289.160156 C 195.730469 286.15625 185.113281 278.570312 175.058594 270.402344 Z M 208.328125 289.753906 C 195.636719 287.195312 184.699219 279.972656 174.777344 272.476562 C 163.132812 263.679688 150.703125 261.765625 138.679688 259.910156 C 127.097656 258.128906 116.15625 256.441406 108.140625 248.3125 C 102.128906 242.210938 96.460938 234.519531 91.878906 225.644531 C 96.128906 233.664062 100.792969 239.78125 104.347656 243.84375 C 105.695312 245.390625 106.890625 246.640625 107.835938 247.585938 C 115.691406 255.441406 126.410156 256.742188 137.753906 258.117188 C 150.140625 259.617188 162.949219 261.171875 174.765625 270.769531 C 185.015625 279.097656 195.84375 286.820312 208.332031 289.757812 Z M 104.472656 245.0625 C 105.554688 246.300781 106.667969 247.496094 107.796875 248.648438 C 115.925781 256.890625 126.945312 258.589844 138.609375 260.386719 C 150.570312 262.230469 162.945312 264.136719 174.484375 272.859375 C 183.765625 279.875 194.808594 287.234375 207.355469 290.066406 C 195.421875 287.800781 184.640625 281.660156 174.492188 274.550781 C 163.199219 266.636719 151.257812 264.414062 139.710938 262.261719 C 127.746094 260.035156 116.445312 257.933594 108.121094 249.371094 C 101.53125 242.601562 95.339844 233.941406 90.554688 223.894531 C 94.320312 231.640625 99.054688 238.871094 104.472656 245.066406 Z M 104.769531 246.457031 C 105.746094 247.574219 106.746094 248.664062 107.769531 249.710938 C 116.207031 258.386719 127.582031 260.503906 139.625 262.746094 C 151.121094 264.886719 163.003906 267.101562 174.210938 274.953125 C 183.96875 281.789062 197.074219 289.828125 211.957031 291.339844 C 212.632812 291.410156 213.3125 291.449219 213.988281 291.488281 C 199.3125 290.984375 186.335938 284.464844 174.214844 276.617188 C 163.347656 269.582031 151.960938 267.113281 140.949219 264.722656 C 128.53125 262.023438 116.800781 259.480469 108.105469 250.425781 C 101.671875 243.726562 95.617188 235.226562 90.871094 225.402344 C 94.652344 233.097656 99.371094 240.28125 104.773438 246.457031 Z M 105.984375 253.226562 C 106.523438 253.839844 107.066406 254.441406 107.613281 255.042969 C 118.855469 267.257812 133.753906 271.992188 149.527344 277 C 157.1875 279.429688 165.113281 281.945312 172.84375 285.417969 C 188.453125 292.421875 203.253906 295.097656 217.441406 293.433594 C 203.289062 295.445312 188.472656 293.289062 172.785156 286.980469 C 166.503906 284.453125 160.101562 282.335938 153.90625 280.292969 C 136.605469 274.578125 120.265625 269.179688 108.003906 255.726562 C 105.210938 252.664062 102.554688 249.316406 100.0625 245.746094 C 101.925781 248.34375 103.898438 250.84375 105.980469 253.230469 Z M 99.550781 244.003906 C 101.488281 246.738281 103.550781 249.359375 105.734375 251.855469 C 106.359375 252.574219 107 253.28125 107.644531 253.976562 C 118.050781 265.179688 131.855469 269.285156 146.472656 273.644531 C 155.242188 276.253906 164.3125 278.953125 173.117188 283.324219 C 186.332031 289.886719 198.789062 293.21875 210.792969 293.320312 C 198.714844 293.59375 186.183594 290.789062 173.074219 284.910156 C 165.308594 281.425781 157.371094 278.902344 149.695312 276.46875 C 133.996094 271.484375 119.167969 266.777344 108.027344 254.667969 C 105.03125 251.410156 102.191406 247.84375 99.550781 244.007812 Z M 104.929688 247.714844 C 105.847656 248.761719 106.78125 249.785156 107.738281 250.78125 C 116.539062 259.945312 128.34375 262.507812 140.839844 265.21875 C 151.808594 267.601562 163.148438 270.0625 173.9375 277.046875 C 188.527344 286.492188 200.394531 291.058594 212.402344 291.839844 C 198.007812 291.332031 185.28125 285.457031 173.929688 278.691406 C 163.589844 272.53125 152.839844 269.882812 142.445312 267.320312 C 129.46875 264.125 117.21875 261.105469 108.085938 251.488281 C 103.78125 246.953125 99.652344 241.613281 95.96875 235.625 C 98.660156 239.921875 101.660156 243.976562 104.929688 247.71875 Z M 105.207031 249.105469 C 106.023438 250.035156 106.859375 250.953125 107.707031 251.84375 C 116.941406 261.574219 129.269531 264.609375 142.316406 267.828125 C 152.675781 270.378906 163.386719 273.019531 173.660156 279.140625 C 187.835938 287.582031 200.058594 291.769531 212.03125 292.296875 C 197.351562 292.109375 184.484375 286.675781 173.644531 280.761719 C 163.964844 275.480469 153.960938 272.746094 144.289062 270.097656 C 130.625 266.359375 117.71875 262.828125 108.066406 252.546875 C 104.386719 248.632812 100.9375 244.242188 97.8125 239.449219 C 100.09375 242.839844 102.558594 246.074219 105.207031 249.105469 Z M 105.476562 250.480469 C 106.195312 251.304688 106.929688 252.113281 107.675781 252.910156 C 117.429688 263.300781 130.40625 266.851562 144.148438 270.609375 C 153.792969 273.25 163.761719 275.980469 173.390625 281.230469 C 183.441406 286.710938 195.21875 291.785156 208.558594 292.703125 C 197.324219 292.234375 185.671875 288.945312 173.359375 282.832031 C 164.511719 278.441406 155.421875 275.734375 146.632812 273.113281 C 132.089844 268.785156 118.355469 264.691406 108.050781 253.601562 C 104.832031 250.140625 101.800781 246.308594 99 242.179688 C 101.023438 245.074219 103.179688 247.855469 105.480469 250.480469 Z M 106.234375 254.59375 C 106.679688 255.101562 107.128906 255.605469 107.585938 256.105469 C 119.949219 269.671875 136.355469 275.09375 153.726562 280.832031 C 159.914062 282.871094 166.308594 284.984375 172.574219 287.507812 C 185.964844 292.890625 198.730469 295.265625 210.992188 294.628906 C 198.648438 295.640625 185.796875 293.789062 172.503906 289.042969 C 168.371094 287.570312 164.167969 286.175781 160.105469 284.824219 C 140.4375 278.300781 121.867188 272.136719 107.992188 256.777344 C 104.21875 252.597656 100.835938 248.15625 97.832031 243.519531 C 100.394531 247.40625 103.199219 251.113281 106.238281 254.589844 Z M 106.476562 255.960938 C 106.832031 256.367188 107.195312 256.773438 107.554688 257.171875 C 121.535156 272.648438 140.179688 278.835938 159.917969 285.386719 C 163.980469 286.734375 168.179688 288.128906 172.304688 289.601562 C 185.710938 294.382812 198.664062 296.246094 211.105469 295.214844 C 198.578125 296.621094 185.53125 295.28125 172.214844 291.117188 L 170.21875 290.5 C 147.707031 283.472656 124.425781 276.207031 107.972656 257.839844 C 107.695312 257.527344 107.421875 257.21875 107.144531 256.902344 C 104.222656 253.5625 101.550781 250.0625 99.101562 246.445312 C 101.386719 249.761719 103.84375 252.953125 106.480469 255.964844 Z M 106.675781 257.28125 C 106.957031 257.601562 107.238281 257.925781 107.523438 258.242188 C 124.085938 276.738281 147.445312 284.023438 170.039062 291.074219 L 172.035156 291.695312 C 185.433594 295.882812 198.554688 297.234375 211.160156 295.820312 C 198.464844 297.613281 185.242188 296.777344 171.921875 293.191406 C 150.144531 287.335938 125.519531 278.679688 107.949219 258.898438 C 107.761719 258.6875 107.585938 258.484375 107.398438 258.273438 C 105.417969 256.007812 103.550781 253.667969 101.785156 251.269531 C 103.339844 253.324219 104.96875 255.332031 106.671875 257.28125 Z M 107.917969 261.015625 C 105.953125 258.769531 104.09375 256.453125 102.335938 254.085938 C 103.90625 256.152344 105.542969 258.175781 107.265625 260.140625 L 107.46875 260.371094 C 122.855469 277.792969 144.398438 289.738281 171.503906 295.878906 C 184.285156 298.773438 196.925781 299.296875 209.078125 297.5625 C 173.09375 303.738281 134.265625 291.140625 107.921875 261.015625 Z M 171.636719 295.265625 C 144.664062 289.160156 123.230469 277.277344 107.933594 259.957031 L 107.742188 259.738281 C 105.828125 257.546875 104.015625 255.292969 102.292969 252.984375 C 103.773438 254.921875 105.3125 256.820312 106.929688 258.664062 C 107.117188 258.878906 107.304688 259.089844 107.496094 259.304688 C 125.171875 279.207031 149.902344 287.90625 171.765625 293.789062 C 187.308594 297.96875 202.71875 298.441406 217.320312 295.367188 C 202.742188 298.785156 187.292969 298.8125 171.636719 295.265625 Z M 258.59375 274.386719 C 258.421875 274.535156 258.246094 274.683594 258.070312 274.828125 C 257.875 274.988281 257.683594 275.148438 257.488281 275.308594 C 257.324219 275.441406 257.164062 275.570312 257 275.699219 C 256.832031 275.832031 256.660156 275.972656 256.496094 276.101562 C 256.355469 276.210938 256.214844 276.316406 256.078125 276.417969 C 255.886719 276.566406 255.695312 276.707031 255.503906 276.851562 C 255.476562 276.875 255.445312 276.898438 255.417969 276.917969 C 255.027344 277.207031 254.636719 277.492188 254.246094 277.773438 C 254.226562 277.785156 254.207031 277.796875 254.191406 277.8125 C 253.597656 278.226562 253.007812 278.632812 252.417969 279.035156 C 252.308594 279.105469 252.199219 279.183594 252.089844 279.257812 C 251.773438 279.464844 251.453125 279.691406 251.132812 279.894531 C 251.046875 279.949219 250.964844 279.996094 250.882812 280.054688 C 250.03125 280.597656 249.1875 281.105469 248.347656 281.605469 C 248.058594 281.773438 247.769531 281.945312 247.480469 282.109375 C 246.863281 282.464844 246.253906 282.800781 245.644531 283.132812 C 245.171875 283.382812 244.707031 283.628906 244.238281 283.871094 C 244.179688 283.898438 244.121094 283.929688 244.0625 283.960938 C 243.925781 284.03125 243.792969 284.09375 243.65625 284.164062 C 211.792969 299.867188 192.84375 281.03125 175.898438 264.1875 C 163.4375 251.796875 148.78125 251.5 135.851562 251.238281 C 125.296875 251.027344 115.328125 250.824219 108.21875 244.074219 C 104.71875 240.753906 81.039062 216.886719 81.417969 180.316406 C 81.503906 175.648438 81.953125 170.855469 82.835938 165.964844 C 82.871094 165.769531 82.90625 165.578125 82.945312 165.382812 C 83.09375 164.570312 83.273438 163.75 83.445312 162.933594 C 83.617188 162.160156 83.785156 161.386719 83.976562 160.609375 C 84.054688 160.285156 84.140625 159.957031 84.222656 159.628906 C 84.519531 158.460938 84.832031 157.292969 85.175781 156.125 C 85.175781 156.125 85.175781 156.125 85.175781 156.117188 C 85.554688 154.832031 85.96875 153.542969 86.40625 152.253906 C 86.457031 152.109375 86.503906 151.960938 86.558594 151.8125 C 86.917969 150.773438 87.300781 149.734375 87.699219 148.695312 C 87.878906 148.238281 88.054688 147.777344 88.238281 147.320312 C 88.421875 146.855469 88.621094 146.386719 88.820312 145.921875 C 88.902344 145.722656 88.984375 145.523438 89.066406 145.324219 C 89.105469 145.238281 89.140625 145.152344 89.175781 145.066406 C 89.441406 144.449219 89.707031 143.832031 89.984375 143.21875 C 90.019531 143.144531 90.050781 143.070312 90.082031 142.992188 C 90.101562 142.949219 90.125 142.90625 90.144531 142.863281 C 90.230469 142.683594 90.316406 142.5 90.402344 142.320312 C 90.613281 141.863281 90.835938 141.40625 91.058594 140.949219 C 91.105469 140.847656 91.15625 140.746094 91.203125 140.648438 C 91.300781 140.453125 91.394531 140.261719 91.492188 140.066406 C 91.566406 139.917969 91.640625 139.769531 91.714844 139.621094 C 91.964844 139.128906 92.203125 138.636719 92.457031 138.148438 C 98.332031 127.070312 106.210938 117.292969 115.6875 108.992188 C 159.585938 70.550781 227.554688 76.164062 267.210938 121.511719 C 306.863281 166.855469 303.484375 235.105469 259.589844 273.546875 C 259.261719 273.832031 258.925781 274.109375 258.597656 274.394531 Z M 258.59375 274.386719 " clip-rule="nonzero"/></clipPath><linearGradient x1="-153.394968" gradientTransform="matrix(0.142685, 0.280602, -0.280162, 0.142462, 233.044749, 44.799869)" y1="339.92001" x2="866.379014" gradientUnits="userSpaceOnUse" y2="339.92001" id="953e847fc8"><stop stop-opacity="1" stop-color="rgb(45.098877%, 45.098877%, 45.098877%)" offset="0"/><stop stop-opacity="1" stop-color="rgb(45.098877%, 45.098877%, 45.098877%)" offset="0.0625"/><stop stop-opacity="1" stop-color="rgb(45.014954%, 45.014954%, 45.014954%)" offset="0.09375"/><stop stop-opacity="1" stop-color="rgb(44.668579%, 44.668579%, 44.668579%)" offset="0.0976563"/><stop stop-opacity="1" stop-color="rgb(44.406128%, 44.406128%, 44.406128%)" offset="0.101563"/><stop stop-opacity="1" stop-color="rgb(44.143677%, 44.143677%, 44.143677%)" offset="0.105469"/><stop stop-opacity="1" stop-color="rgb(43.881226%, 43.881226%, 43.881226%)" offset="0.109375"/><stop stop-opacity="1" stop-color="rgb(43.617249%, 43.617249%, 43.617249%)" offset="0.113281"/><stop stop-opacity="1" stop-color="rgb(43.354797%, 43.354797%, 43.354797%)" offset="0.117188"/><stop stop-opacity="1" stop-color="rgb(43.09082%, 43.09082%, 43.09082%)" offset="0.121094"/><stop stop-opacity="1" stop-color="rgb(42.828369%, 42.828369%, 42.828369%)" offset="0.125"/><stop stop-opacity="1" stop-color="rgb(42.565918%, 42.565918%, 42.565918%)" offset="0.128906"/><stop stop-opacity="1" stop-color="rgb(42.303467%, 42.303467%, 42.303467%)" offset="0.132812"/><stop stop-opacity="1" stop-color="rgb(42.03949%, 42.03949%, 42.03949%)" offset="0.136719"/><stop stop-opacity="1" stop-color="rgb(41.777039%, 41.777039%, 41.777039%)" offset="0.140625"/><stop stop-opacity="1" stop-color="rgb(41.514587%, 41.514587%, 41.514587%)" offset="0.144531"/><stop stop-opacity="1" stop-color="rgb(41.252136%, 41.252136%, 41.252136%)" offset="0.148438"/><stop stop-opacity="1" stop-color="rgb(40.988159%, 40.988159%, 40.988159%)" offset="0.152344"/><stop stop-opacity="1" stop-color="rgb(40.725708%, 40.725708%, 40.725708%)" offset="0.15625"/><stop stop-opacity="1" stop-color="rgb(40.461731%, 40.461731%, 40.461731%)" offset="0.160156"/><stop stop-opacity="1" stop-color="rgb(40.19928%, 40.19928%, 40.19928%)" offset="0.164063"/><stop stop-opacity="1" stop-color="rgb(39.936829%, 39.936829%, 39.936829%)" offset="0.167969"/><stop stop-opacity="1" stop-color="rgb(39.674377%, 39.674377%, 39.674377%)" offset="0.171875"/><stop stop-opacity="1" stop-color="rgb(39.4104%, 39.4104%, 39.4104%)" offset="0.175781"/><stop stop-opacity="1" stop-color="rgb(39.147949%, 39.147949%, 39.147949%)" offset="0.179688"/><stop stop-opacity="1" stop-color="rgb(38.885498%, 38.885498%, 38.885498%)" offset="0.183594"/><stop stop-opacity="1" stop-color="rgb(38.623047%, 38.623047%, 38.623047%)" offset="0.1875"/><stop stop-opacity="1" stop-color="rgb(38.35907%, 38.35907%, 38.35907%)" offset="0.191406"/><stop stop-opacity="1" stop-color="rgb(38.096619%, 38.096619%, 38.096619%)" offset="0.195313"/><stop stop-opacity="1" stop-color="rgb(37.832642%, 37.832642%, 37.832642%)" offset="0.199219"/><stop stop-opacity="1" stop-color="rgb(37.57019%, 37.57019%, 37.57019%)" offset="0.203125"/><stop stop-opacity="1" stop-color="rgb(37.307739%, 37.307739%, 37.307739%)" offset="0.207031"/><stop stop-opacity="1" stop-color="rgb(37.045288%, 37.045288%, 37.045288%)" offset="0.210938"/><stop stop-opacity="1" stop-color="rgb(36.781311%, 36.781311%, 36.781311%)" offset="0.214844"/><stop stop-opacity="1" stop-color="rgb(36.51886%, 36.51886%, 36.51886%)" offset="0.21875"/><stop stop-opacity="1" stop-color="rgb(36.256409%, 36.256409%, 36.256409%)" offset="0.222656"/><stop stop-opacity="1" stop-color="rgb(35.993958%, 35.993958%, 35.993958%)" offset="0.226563"/><stop stop-opacity="1" stop-color="rgb(35.72998%, 35.72998%, 35.72998%)" offset="0.230469"/><stop stop-opacity="1" stop-color="rgb(35.467529%, 35.467529%, 35.467529%)" offset="0.234375"/><stop stop-opacity="1" stop-color="rgb(35.203552%, 35.203552%, 35.203552%)" offset="0.238281"/><stop stop-opacity="1" stop-color="rgb(34.941101%, 34.941101%, 34.941101%)" offset="0.242188"/><stop stop-opacity="1" stop-color="rgb(34.67865%, 34.67865%, 34.67865%)" offset="0.246094"/><stop stop-opacity="1" stop-color="rgb(34.416199%, 34.416199%, 34.416199%)" offset="0.25"/><stop stop-opacity="1" stop-color="rgb(34.152222%, 34.152222%, 34.152222%)" offset="0.253906"/><stop stop-opacity="1" stop-color="rgb(33.889771%, 33.889771%, 33.889771%)" offset="0.257813"/><stop stop-opacity="1" stop-color="rgb(33.627319%, 33.627319%, 33.627319%)" offset="0.261719"/><stop stop-opacity="1" stop-color="rgb(33.364868%, 33.364868%, 33.364868%)" offset="0.265625"/><stop stop-opacity="1" stop-color="rgb(33.1604%, 33.1604%, 33.1604%)" offset="0.269531"/><stop stop-opacity="1" stop-color="rgb(32.957458%, 32.957458%, 32.957458%)" offset="0.273438"/><stop stop-opacity="1" stop-color="rgb(33.207703%, 33.207703%, 33.207703%)" offset="0.277344"/><stop stop-opacity="1" stop-color="rgb(33.459473%, 33.459473%, 33.459473%)" offset="0.28125"/><stop stop-opacity="1" stop-color="rgb(33.709717%, 33.709717%, 33.709717%)" offset="0.285156"/><stop stop-opacity="1" stop-color="rgb(33.961487%, 33.961487%, 33.961487%)" offset="0.289063"/><stop stop-opacity="1" stop-color="rgb(34.211731%, 34.211731%, 34.211731%)" offset="0.292969"/><stop stop-opacity="1" stop-color="rgb(34.463501%, 34.463501%, 34.463501%)" offset="0.296875"/><stop stop-opacity="1" stop-color="rgb(34.713745%, 34.713745%, 34.713745%)" offset="0.300781"/><stop stop-opacity="1" stop-color="rgb(34.965515%, 34.965515%, 34.965515%)" offset="0.304688"/><stop stop-opacity="1" stop-color="rgb(35.215759%, 35.215759%, 35.215759%)" offset="0.308594"/><stop stop-opacity="1" stop-color="rgb(35.466003%, 35.466003%, 35.466003%)" offset="0.3125"/><stop stop-opacity="1" stop-color="rgb(35.716248%, 35.716248%, 35.716248%)" offset="0.316406"/><stop stop-opacity="1" stop-color="rgb(35.968018%, 35.968018%, 35.968018%)" offset="0.320313"/><stop stop-opacity="1" stop-color="rgb(36.218262%, 36.218262%, 36.218262%)" offset="0.324219"/><stop stop-opacity="1" stop-color="rgb(36.470032%, 36.470032%, 36.470032%)" offset="0.328125"/><stop stop-opacity="1" stop-color="rgb(36.720276%, 36.720276%, 36.720276%)" offset="0.332031"/><stop stop-opacity="1" stop-color="rgb(36.972046%, 36.972046%, 36.972046%)" offset="0.335938"/><stop stop-opacity="1" stop-color="rgb(37.22229%, 37.22229%, 37.22229%)" offset="0.339844"/><stop stop-opacity="1" stop-color="rgb(37.47406%, 37.47406%, 37.47406%)" offset="0.34375"/><stop stop-opacity="1" stop-color="rgb(37.724304%, 37.724304%, 37.724304%)" offset="0.347656"/><stop stop-opacity="1" stop-color="rgb(37.976074%, 37.976074%, 37.976074%)" offset="0.351563"/><stop stop-opacity="1" stop-color="rgb(38.226318%, 38.226318%, 38.226318%)" offset="0.355469"/><stop stop-opacity="1" stop-color="rgb(38.478088%, 38.478088%, 38.478088%)" offset="0.359375"/><stop stop-opacity="1" stop-color="rgb(38.728333%, 38.728333%, 38.728333%)" offset="0.363281"/><stop stop-opacity="1" stop-color="rgb(38.980103%, 38.980103%, 38.980103%)" offset="0.367188"/><stop stop-opacity="1" stop-color="rgb(39.230347%, 39.230347%, 39.230347%)" offset="0.371094"/><stop stop-opacity="1" stop-color="rgb(39.482117%, 39.482117%, 39.482117%)" offset="0.375"/><stop stop-opacity="1" stop-color="rgb(39.732361%, 39.732361%, 39.732361%)" offset="0.378906"/><stop stop-opacity="1" stop-color="rgb(39.984131%, 39.984131%, 39.984131%)" offset="0.382813"/><stop stop-opacity="1" stop-color="rgb(40.234375%, 40.234375%, 40.234375%)" offset="0.386719"/><stop stop-opacity="1" stop-color="rgb(40.486145%, 40.486145%, 40.486145%)" offset="0.390625"/><stop stop-opacity="1" stop-color="rgb(40.736389%, 40.736389%, 40.736389%)" offset="0.394531"/><stop stop-opacity="1" stop-color="rgb(40.988159%, 40.988159%, 40.988159%)" offset="0.398438"/><stop stop-opacity="1" stop-color="rgb(41.238403%, 41.238403%, 41.238403%)" offset="0.402344"/><stop stop-opacity="1" stop-color="rgb(41.490173%, 41.490173%, 41.490173%)" offset="0.40625"/><stop stop-opacity="1" stop-color="rgb(41.740417%, 41.740417%, 41.740417%)" offset="0.410156"/><stop stop-opacity="1" stop-color="rgb(41.992188%, 41.992188%, 41.992188%)" offset="0.414063"/><stop stop-opacity="1" stop-color="rgb(42.242432%, 42.242432%, 42.242432%)" offset="0.417969"/><stop stop-opacity="1" stop-color="rgb(42.494202%, 42.494202%, 42.494202%)" offset="0.421875"/><stop stop-opacity="1" stop-color="rgb(42.744446%, 42.744446%, 42.744446%)" offset="0.425781"/><stop stop-opacity="1" stop-color="rgb(42.99469%, 42.99469%, 42.99469%)" offset="0.429688"/><stop stop-opacity="1" stop-color="rgb(43.244934%, 43.244934%, 43.244934%)" offset="0.433594"/><stop stop-opacity="1" stop-color="rgb(43.496704%, 43.496704%, 43.496704%)" offset="0.4375"/><stop stop-opacity="1" stop-color="rgb(43.746948%, 43.746948%, 43.746948%)" offset="0.441406"/><stop stop-opacity="1" stop-color="rgb(43.998718%, 43.998718%, 43.998718%)" offset="0.445313"/><stop stop-opacity="1" stop-color="rgb(44.248962%, 44.248962%, 44.248962%)" offset="0.449219"/><stop stop-opacity="1" stop-color="rgb(44.500732%, 44.500732%, 44.500732%)" offset="0.453125"/><stop stop-opacity="1" stop-color="rgb(44.750977%, 44.750977%, 44.750977%)" offset="0.457031"/><stop stop-opacity="1" stop-color="rgb(45.002747%, 45.002747%, 45.002747%)" offset="0.460938"/><stop stop-opacity="1" stop-color="rgb(44.827271%, 44.827271%, 44.827271%)" offset="0.46875"/><stop stop-opacity="1" stop-color="rgb(44.377136%, 44.377136%, 44.377136%)" offset="0.472656"/><stop stop-opacity="1" stop-color="rgb(44.100952%, 44.100952%, 44.100952%)" offset="0.476563"/><stop stop-opacity="1" stop-color="rgb(43.824768%, 43.824768%, 43.824768%)" offset="0.480469"/><stop stop-opacity="1" stop-color="rgb(43.548584%, 43.548584%, 43.548584%)" offset="0.484375"/><stop stop-opacity="1" stop-color="rgb(43.2724%, 43.2724%, 43.2724%)" offset="0.488281"/><stop stop-opacity="1" stop-color="rgb(42.996216%, 42.996216%, 42.996216%)" offset="0.492188"/><stop stop-opacity="1" stop-color="rgb(42.720032%, 42.720032%, 42.720032%)" offset="0.496094"/><stop stop-opacity="1" stop-color="rgb(42.443848%, 42.443848%, 42.443848%)" offset="0.5"/><stop stop-opacity="1" stop-color="rgb(42.167664%, 42.167664%, 42.167664%)" offset="0.503906"/><stop stop-opacity="1" stop-color="rgb(41.893005%, 41.893005%, 41.893005%)" offset="0.507812"/><stop stop-opacity="1" stop-color="rgb(41.616821%, 41.616821%, 41.616821%)" offset="0.511719"/><stop stop-opacity="1" stop-color="rgb(41.340637%, 41.340637%, 41.340637%)" offset="0.515625"/><stop stop-opacity="1" stop-color="rgb(41.064453%, 41.064453%, 41.064453%)" offset="0.519531"/><stop stop-opacity="1" stop-color="rgb(40.788269%, 40.788269%, 40.788269%)" offset="0.523438"/><stop stop-opacity="1" stop-color="rgb(40.512085%, 40.512085%, 40.512085%)" offset="0.527344"/><stop stop-opacity="1" stop-color="rgb(40.235901%, 40.235901%, 40.235901%)" offset="0.53125"/><stop stop-opacity="1" stop-color="rgb(39.959717%, 39.959717%, 39.959717%)" offset="0.535156"/><stop stop-opacity="1" stop-color="rgb(39.683533%, 39.683533%, 39.683533%)" offset="0.539062"/><stop stop-opacity="1" stop-color="rgb(39.407349%, 39.407349%, 39.407349%)" offset="0.542969"/><stop stop-opacity="1" stop-color="rgb(39.131165%, 39.131165%, 39.131165%)" offset="0.546875"/><stop stop-opacity="1" stop-color="rgb(38.85498%, 38.85498%, 38.85498%)" offset="0.550781"/><stop stop-opacity="1" stop-color="rgb(38.580322%, 38.580322%, 38.580322%)" offset="0.554688"/><stop stop-opacity="1" stop-color="rgb(38.304138%, 38.304138%, 38.304138%)" offset="0.558594"/><stop stop-opacity="1" stop-color="rgb(38.027954%, 38.027954%, 38.027954%)" offset="0.5625"/><stop stop-opacity="1" stop-color="rgb(37.75177%, 37.75177%, 37.75177%)" offset="0.566406"/><stop stop-opacity="1" stop-color="rgb(37.475586%, 37.475586%, 37.475586%)" offset="0.570312"/><stop stop-opacity="1" stop-color="rgb(37.199402%, 37.199402%, 37.199402%)" offset="0.574219"/><stop stop-opacity="1" stop-color="rgb(36.923218%, 36.923218%, 36.923218%)" offset="0.578125"/><stop stop-opacity="1" stop-color="rgb(36.647034%, 36.647034%, 36.647034%)" offset="0.582031"/><stop stop-opacity="1" stop-color="rgb(36.37085%, 36.37085%, 36.37085%)" offset="0.585938"/><stop stop-opacity="1" stop-color="rgb(36.094666%, 36.094666%, 36.094666%)" offset="0.589844"/><stop stop-opacity="1" stop-color="rgb(35.818481%, 35.818481%, 35.818481%)" offset="0.59375"/><stop stop-opacity="1" stop-color="rgb(35.542297%, 35.542297%, 35.542297%)" offset="0.597656"/><stop stop-opacity="1" stop-color="rgb(35.267639%, 35.267639%, 35.267639%)" offset="0.601562"/><stop stop-opacity="1" stop-color="rgb(34.991455%, 34.991455%, 34.991455%)" offset="0.605469"/><stop stop-opacity="1" stop-color="rgb(34.715271%, 34.715271%, 34.715271%)" offset="0.609375"/><stop stop-opacity="1" stop-color="rgb(34.439087%, 34.439087%, 34.439087%)" offset="0.613281"/><stop stop-opacity="1" stop-color="rgb(34.162903%, 34.162903%, 34.162903%)" offset="0.617188"/><stop stop-opacity="1" stop-color="rgb(33.886719%, 33.886719%, 33.886719%)" offset="0.621094"/><stop stop-opacity="1" stop-color="rgb(33.610535%, 33.610535%, 33.610535%)" offset="0.625"/><stop stop-opacity="1" stop-color="rgb(33.334351%, 33.334351%, 33.334351%)" offset="0.628906"/><stop stop-opacity="1" stop-color="rgb(33.058167%, 33.058167%, 33.058167%)" offset="0.632812"/><stop stop-opacity="1" stop-color="rgb(33.209229%, 33.209229%, 33.209229%)" offset="0.640625"/><stop stop-opacity="1" stop-color="rgb(33.685303%, 33.685303%, 33.685303%)" offset="0.644531"/><stop stop-opacity="1" stop-color="rgb(34.010315%, 34.010315%, 34.010315%)" offset="0.648438"/><stop stop-opacity="1" stop-color="rgb(34.335327%, 34.335327%, 34.335327%)" offset="0.652344"/><stop stop-opacity="1" stop-color="rgb(34.660339%, 34.660339%, 34.660339%)" offset="0.65625"/><stop stop-opacity="1" stop-color="rgb(34.985352%, 34.985352%, 34.985352%)" offset="0.660156"/><stop stop-opacity="1" stop-color="rgb(35.310364%, 35.310364%, 35.310364%)" offset="0.664062"/><stop stop-opacity="1" stop-color="rgb(35.63385%, 35.63385%, 35.63385%)" offset="0.667969"/><stop stop-opacity="1" stop-color="rgb(35.958862%, 35.958862%, 35.958862%)" offset="0.671875"/><stop stop-opacity="1" stop-color="rgb(36.283875%, 36.283875%, 36.283875%)" offset="0.675781"/><stop stop-opacity="1" stop-color="rgb(36.608887%, 36.608887%, 36.608887%)" offset="0.679688"/><stop stop-opacity="1" stop-color="rgb(36.933899%, 36.933899%, 36.933899%)" offset="0.683594"/><stop stop-opacity="1" stop-color="rgb(37.258911%, 37.258911%, 37.258911%)" offset="0.6875"/><stop stop-opacity="1" stop-color="rgb(37.582397%, 37.582397%, 37.582397%)" offset="0.691406"/><stop stop-opacity="1" stop-color="rgb(37.90741%, 37.90741%, 37.90741%)" offset="0.695312"/><stop stop-opacity="1" stop-color="rgb(38.232422%, 38.232422%, 38.232422%)" offset="0.699219"/><stop stop-opacity="1" stop-color="rgb(38.557434%, 38.557434%, 38.557434%)" offset="0.703125"/><stop stop-opacity="1" stop-color="rgb(38.882446%, 38.882446%, 38.882446%)" offset="0.707031"/><stop stop-opacity="1" stop-color="rgb(39.207458%, 39.207458%, 39.207458%)" offset="0.710938"/><stop stop-opacity="1" stop-color="rgb(39.530945%, 39.530945%, 39.530945%)" offset="0.714844"/><stop stop-opacity="1" stop-color="rgb(39.855957%, 39.855957%, 39.855957%)" offset="0.71875"/><stop stop-opacity="1" stop-color="rgb(40.180969%, 40.180969%, 40.180969%)" offset="0.722656"/><stop stop-opacity="1" stop-color="rgb(40.505981%, 40.505981%, 40.505981%)" offset="0.726562"/><stop stop-opacity="1" stop-color="rgb(40.830994%, 40.830994%, 40.830994%)" offset="0.730469"/><stop stop-opacity="1" stop-color="rgb(41.156006%, 41.156006%, 41.156006%)" offset="0.734375"/><stop stop-opacity="1" stop-color="rgb(41.479492%, 41.479492%, 41.479492%)" offset="0.738281"/><stop stop-opacity="1" stop-color="rgb(41.804504%, 41.804504%, 41.804504%)" offset="0.742188"/><stop stop-opacity="1" stop-color="rgb(42.129517%, 42.129517%, 42.129517%)" offset="0.746094"/><stop stop-opacity="1" stop-color="rgb(42.454529%, 42.454529%, 42.454529%)" offset="0.75"/><stop stop-opacity="1" stop-color="rgb(42.779541%, 42.779541%, 42.779541%)" offset="0.753906"/><stop stop-opacity="1" stop-color="rgb(43.104553%, 43.104553%, 43.104553%)" offset="0.757812"/><stop stop-opacity="1" stop-color="rgb(43.42804%, 43.42804%, 43.42804%)" offset="0.761719"/><stop stop-opacity="1" stop-color="rgb(43.753052%, 43.753052%, 43.753052%)" offset="0.765625"/><stop stop-opacity="1" stop-color="rgb(44.078064%, 44.078064%, 44.078064%)" offset="0.769531"/><stop stop-opacity="1" stop-color="rgb(44.403076%, 44.403076%, 44.403076%)" offset="0.773438"/><stop stop-opacity="1" stop-color="rgb(44.728088%, 44.728088%, 44.728088%)" offset="0.777344"/><stop stop-opacity="1" stop-color="rgb(45.053101%, 45.053101%, 45.053101%)" offset="0.78125"/><stop stop-opacity="1" stop-color="rgb(44.819641%, 44.819641%, 44.819641%)" offset="0.785156"/><stop stop-opacity="1" stop-color="rgb(44.586182%, 44.586182%, 44.586182%)" offset="0.789062"/><stop stop-opacity="1" stop-color="rgb(44.309998%, 44.309998%, 44.309998%)" offset="0.792969"/><stop stop-opacity="1" stop-color="rgb(44.033813%, 44.033813%, 44.033813%)" offset="0.796875"/><stop stop-opacity="1" stop-color="rgb(43.757629%, 43.757629%, 43.757629%)" offset="0.800781"/><stop stop-opacity="1" stop-color="rgb(43.482971%, 43.482971%, 43.482971%)" offset="0.804688"/><stop stop-opacity="1" stop-color="rgb(43.206787%, 43.206787%, 43.206787%)" offset="0.808594"/><stop stop-opacity="1" stop-color="rgb(42.930603%, 42.930603%, 42.930603%)" offset="0.8125"/><stop stop-opacity="1" stop-color="rgb(42.654419%, 42.654419%, 42.654419%)" offset="0.816406"/><stop stop-opacity="1" stop-color="rgb(42.378235%, 42.378235%, 42.378235%)" offset="0.820312"/><stop stop-opacity="1" stop-color="rgb(42.102051%, 42.102051%, 42.102051%)" offset="0.824219"/><stop stop-opacity="1" stop-color="rgb(41.825867%, 41.825867%, 41.825867%)" offset="0.828125"/><stop stop-opacity="1" stop-color="rgb(41.549683%, 41.549683%, 41.549683%)" offset="0.832031"/><stop stop-opacity="1" stop-color="rgb(41.273499%, 41.273499%, 41.273499%)" offset="0.835938"/><stop stop-opacity="1" stop-color="rgb(40.997314%, 40.997314%, 40.997314%)" offset="0.839844"/><stop stop-opacity="1" stop-color="rgb(40.72113%, 40.72113%, 40.72113%)" offset="0.84375"/><stop stop-opacity="1" stop-color="rgb(40.444946%, 40.444946%, 40.444946%)" offset="0.847656"/><stop stop-opacity="1" stop-color="rgb(40.170288%, 40.170288%, 40.170288%)" offset="0.851562"/><stop stop-opacity="1" stop-color="rgb(39.894104%, 39.894104%, 39.894104%)" offset="0.855469"/><stop stop-opacity="1" stop-color="rgb(39.61792%, 39.61792%, 39.61792%)" offset="0.859375"/><stop stop-opacity="1" stop-color="rgb(39.341736%, 39.341736%, 39.341736%)" offset="0.863281"/><stop stop-opacity="1" stop-color="rgb(39.065552%, 39.065552%, 39.065552%)" offset="0.867188"/><stop stop-opacity="1" stop-color="rgb(38.789368%, 38.789368%, 38.789368%)" offset="0.871094"/><stop stop-opacity="1" stop-color="rgb(38.513184%, 38.513184%, 38.513184%)" offset="0.875"/><stop stop-opacity="1" stop-color="rgb(38.237%, 38.237%, 38.237%)" offset="0.878906"/><stop stop-opacity="1" stop-color="rgb(37.960815%, 37.960815%, 37.960815%)" offset="0.882812"/><stop stop-opacity="1" stop-color="rgb(37.684631%, 37.684631%, 37.684631%)" offset="0.886719"/><stop stop-opacity="1" stop-color="rgb(37.408447%, 37.408447%, 37.408447%)" offset="0.890625"/><stop stop-opacity="1" stop-color="rgb(37.132263%, 37.132263%, 37.132263%)" offset="0.894531"/><stop stop-opacity="1" stop-color="rgb(36.857605%, 36.857605%, 36.857605%)" offset="0.898438"/><stop stop-opacity="1" stop-color="rgb(36.581421%, 36.581421%, 36.581421%)" offset="0.902344"/><stop stop-opacity="1" stop-color="rgb(36.305237%, 36.305237%, 36.305237%)" offset="0.90625"/><stop stop-opacity="1" stop-color="rgb(36.029053%, 36.029053%, 36.029053%)" offset="0.910156"/><stop stop-opacity="1" stop-color="rgb(35.752869%, 35.752869%, 35.752869%)" offset="0.914062"/><stop stop-opacity="1" stop-color="rgb(35.476685%, 35.476685%, 35.476685%)" offset="0.917969"/><stop stop-opacity="1" stop-color="rgb(35.2005%, 35.2005%, 35.2005%)" offset="0.921875"/><stop stop-opacity="1" stop-color="rgb(34.924316%, 34.924316%, 34.924316%)" offset="0.925781"/><stop stop-opacity="1" stop-color="rgb(34.648132%, 34.648132%, 34.648132%)" offset="0.929688"/><stop stop-opacity="1" stop-color="rgb(34.371948%, 34.371948%, 34.371948%)" offset="0.933594"/><stop stop-opacity="1" stop-color="rgb(34.095764%, 34.095764%, 34.095764%)" offset="0.9375"/><stop stop-opacity="1" stop-color="rgb(33.81958%, 33.81958%, 33.81958%)" offset="0.941406"/><stop stop-opacity="1" stop-color="rgb(33.544922%, 33.544922%, 33.544922%)" offset="0.945312"/><stop stop-opacity="1" stop-color="rgb(33.268738%, 33.268738%, 33.268738%)" offset="0.949219"/><stop stop-opacity="1" stop-color="rgb(32.992554%, 32.992554%, 32.992554%)" offset="0.953125"/><stop stop-opacity="1" stop-color="rgb(32.945251%, 32.945251%, 32.945251%)" offset="0.96875"/><stop stop-opacity="1" stop-color="rgb(32.899475%, 32.899475%, 32.899475%)" offset="1"/></linearGradient></defs><g clip-path="url(#a3486fa7e1)"><g clip-path="url(#1d68930e53)"><g clip-path="url(#16a016bb28)"><g clip-path="url(#9fed8cecd4)"><path fill="url(#953e847fc8)" d="M 260.550781 -23.359375 L -20.492188 119.550781 L 125.011719 405.703125 L 406.058594 262.792969 Z M 260.550781 -23.359375 " fill-rule="nonzero"/></g></g></g></g><g fill="#545454" fill-opacity="1"><g transform="translate(141.130357, 114.906193)"><g><path d="M 1.273438 -1.644531 L -2.25 -8.699219 L -3.058594 -8.292969 L 0.867188 -0.433594 L 1.273438 -0.636719 L 1.675781 -0.835938 L 4.484375 -2.238281 L 4.082031 -3.050781 Z M 1.273438 -1.644531 "/></g></g></g><g fill="#545454" fill-opacity="1"><g transform="translate(154.849537, 108.88107)"><g><path d="M 1.382812 -3.773438 L 1.777344 -8.105469 L 4.445312 -4.675781 Z M 7.523438 -2.214844 L 1.179688 -10.140625 L 0.125 -0.0351562 L 1.066406 -0.3125 L 1.296875 -2.875 L 5.003906 -3.964844 L 6.582031 -1.9375 Z M 7.523438 -2.214844 "/></g></g></g><g fill="#545454" fill-opacity="1"><g transform="translate(172.006499, 104.811806)"><g><path d="M 1.875 -1.027344 L 6.285156 -9.441406 L -0.261719 -8.804688 L -0.179688 -7.96875 L 4.730469 -8.449219 L 0.320312 -0.03125 L 6.917969 -0.675781 L 6.835938 -1.511719 Z M 1.875 -1.027344 "/></g></g></g><g fill="#545454" fill-opacity="1"><g transform="translate(189.161471, 104.047624)"><g><path d="M 6.167969 0.539062 L 6.238281 -0.296875 L 1.941406 -0.671875 L 2.210938 -3.789062 L 6.382812 -3.425781 L 6.457031 -4.273438 L 2.285156 -4.640625 L 2.558594 -7.753906 L 6.859375 -7.378906 L 6.929688 -8.214844 L 1.730469 -8.667969 L 0.964844 0.0859375 Z M 6.167969 0.539062 "/></g></g></g><g fill="#545454" fill-opacity="1"><g transform="translate(205.840259, 106.392329)"><g><path d="M 5.964844 1.648438 L 6.191406 0.839844 L 2.03125 -0.308594 L 2.863281 -3.324219 L 6.898438 -2.207031 L 7.125 -3.03125 L 3.089844 -4.144531 L 3.925781 -7.160156 L 8.085938 -6.011719 L 8.308594 -6.820312 L 3.277344 -8.210938 L 0.933594 0.257812 Z M 5.964844 1.648438 "/></g></g></g><g fill="#545454" fill-opacity="1"><g transform="translate(221.812585, 111.72017)"><g><path d="M 2.132812 0.105469 L 10.300781 -4.75 L 4.390625 -7.636719 L 4.023438 -6.878906 L 8.457031 -4.714844 L 0.289062 0.140625 L 6.246094 3.050781 L 6.617188 2.296875 Z M 2.132812 0.105469 "/></g></g></g><g fill="#545454" fill-opacity="1"><g transform="translate(236.846812, 120.14132)"><g/></g></g><g fill="#545454" fill-opacity="1"><g transform="translate(247.244333, 128.372145)"><g><path d="M 9.988281 -1.300781 L 10.578125 -1.898438 L 6.867188 -5.570312 L 0.6875 0.679688 L 1.332031 1.316406 L 4.121094 -1.503906 L 7.097656 1.4375 L 7.699219 0.832031 L 4.722656 -2.113281 L 6.917969 -4.335938 Z M 9.988281 -1.300781 "/></g></g></g><g fill="#545454" fill-opacity="1"><g transform="translate(258.152082, 140.216064)"><g><path d="M 8.550781 4.722656 C 7.714844 5.289062 6.804688 5.46875 5.835938 5.285156 C 4.851562 5.09375 4.082031 4.585938 3.523438 3.761719 C 2.964844 2.9375 2.773438 2.039062 2.96875 1.0625 C 3.148438 0.0820312 3.65625 -0.6875 4.492188 -1.253906 C 5.304688 -1.804688 6.207031 -1.996094 7.191406 -1.808594 C 8.160156 -1.621094 8.941406 -1.121094 9.5 -0.296875 C 10.058594 0.527344 10.238281 1.4375 10.058594 2.417969 C 9.863281 3.394531 9.363281 4.171875 8.550781 4.722656 Z M 9.058594 5.472656 C 9.570312 5.121094 9.980469 4.6875 10.308594 4.183594 C 10.625 3.6875 10.839844 3.152344 10.949219 2.578125 C 11.050781 2.011719 11.046875 1.433594 10.933594 0.851562 C 10.816406 0.261719 10.597656 -0.289062 10.246094 -0.804688 C 9.898438 -1.316406 9.457031 -1.738281 8.960938 -2.054688 C 8.464844 -2.375 7.925781 -2.585938 7.363281 -2.703125 C 6.789062 -2.8125 6.210938 -2.8125 5.632812 -2.699219 C 5.042969 -2.582031 4.496094 -2.351562 3.984375 -2 C 3.46875 -1.652344 3.042969 -1.222656 2.726562 -0.726562 C 2.394531 -0.222656 2.183594 0.316406 2.070312 0.890625 C 1.960938 1.464844 1.964844 2.039062 2.074219 2.621094 C 2.1875 3.199219 2.425781 3.757812 2.773438 4.269531 C 3.125 4.785156 3.546875 5.199219 4.050781 5.527344 C 4.546875 5.847656 5.082031 6.0625 5.660156 6.171875 C 6.234375 6.28125 6.808594 6.277344 7.398438 6.160156 C 7.980469 6.046875 8.542969 5.820312 9.058594 5.472656 Z M 9.058594 5.472656 "/></g></g></g><g fill="#545454" fill-opacity="1"><g transform="translate(268.39296, 157.126422)"><g><path d="M 7.347656 6.433594 C 6.414062 6.808594 5.488281 6.792969 4.578125 6.40625 C 3.65625 6.011719 3.011719 5.347656 2.640625 4.425781 C 2.269531 3.503906 2.277344 2.582031 2.675781 1.667969 C 3.058594 0.75 3.71875 0.105469 4.65625 -0.269531 C 5.566406 -0.636719 6.488281 -0.628906 7.414062 -0.234375 C 8.320312 0.152344 8.972656 0.808594 9.34375 1.730469 C 9.714844 2.65625 9.699219 3.582031 9.316406 4.5 C 8.917969 5.414062 8.257812 6.066406 7.347656 6.433594 Z M 7.6875 7.273438 C 8.261719 7.042969 8.753906 6.703125 9.179688 6.28125 C 9.597656 5.863281 9.921875 5.386719 10.152344 4.847656 C 10.367188 4.316406 10.488281 3.75 10.503906 3.160156 C 10.511719 2.558594 10.414062 1.96875 10.183594 1.394531 C 9.953125 0.820312 9.609375 0.316406 9.191406 -0.101562 C 8.773438 -0.519531 8.296875 -0.839844 7.769531 -1.074219 C 7.234375 -1.304688 6.667969 -1.425781 6.078125 -1.441406 C 5.476562 -1.449219 4.894531 -1.339844 4.316406 -1.109375 C 3.742188 -0.878906 3.234375 -0.546875 2.816406 -0.128906 C 2.386719 0.292969 2.066406 0.773438 1.835938 1.308594 C 1.605469 1.847656 1.484375 2.410156 1.472656 3.003906 C 1.457031 3.59375 1.570312 4.1875 1.800781 4.761719 C 2.035156 5.339844 2.359375 5.835938 2.78125 6.261719 C 3.199219 6.679688 3.679688 7.003906 4.214844 7.234375 C 4.753906 7.460938 5.316406 7.582031 5.921875 7.59375 C 6.511719 7.605469 7.109375 7.503906 7.6875 7.273438 Z M 7.6875 7.273438 "/></g></g></g><g fill="#545454" fill-opacity="1"><g transform="translate(274.765102, 175.867899)"><g><path d="M 5.699219 6.894531 C 6.320312 6.785156 6.871094 6.554688 7.363281 6.230469 C 7.859375 5.90625 8.257812 5.503906 8.570312 5.042969 C 8.878906 4.566406 9.085938 4.042969 9.207031 3.472656 C 9.324219 2.886719 9.335938 2.28125 9.226562 1.667969 L 8.820312 -0.59375 L 0.171875 0.953125 L 0.578125 3.21875 C 0.6875 3.828125 0.890625 4.394531 1.207031 4.902344 C 1.519531 5.398438 1.90625 5.816406 2.363281 6.152344 C 2.816406 6.480469 3.316406 6.71875 3.890625 6.851562 C 4.46875 6.984375 5.0625 7.007812 5.699219 6.894531 Z M 5.542969 6.03125 C 4.550781 6.207031 3.660156 6 2.890625 5.429688 C 2.117188 4.859375 1.648438 4.078125 1.472656 3.085938 L 1.222656 1.683594 L 8.089844 0.453125 L 8.339844 1.855469 C 8.519531 2.847656 8.335938 3.746094 7.824219 4.546875 C 7.285156 5.351562 6.523438 5.855469 5.542969 6.03125 Z M 5.542969 6.03125 "/></g></g></g><g fill="#545454" fill-opacity="1"><g transform="translate(276.987037, 193.758898)"><g><path d="M 4.089844 3.453125 C 3.804688 4.585938 3.496094 5.359375 3.15625 5.765625 C 2.917969 6.046875 2.621094 6.1875 2.257812 6.179688 C 1.894531 6.175781 1.601562 6.09375 1.394531 5.9375 C 0.859375 5.542969 0.59375 4.839844 0.609375 3.859375 C 0.625 2.488281 1.101562 1.71875 2.035156 1.566406 L 2.046875 0.503906 C 0.558594 0.796875 -0.191406 1.910156 -0.21875 3.847656 C -0.230469 4.714844 -0.0585938 5.441406 0.320312 6.027344 C 0.765625 6.730469 1.429688 7.101562 2.308594 7.113281 C 3.035156 7.121094 3.59375 6.84375 3.988281 6.28125 C 4.277344 5.886719 4.542969 5.242188 4.789062 4.355469 C 5.035156 3.453125 5.234375 2.875 5.378906 2.605469 C 5.6875 2.011719 6.101562 1.722656 6.644531 1.742188 C 6.929688 1.746094 7.175781 1.800781 7.355469 1.933594 C 7.851562 2.273438 8.105469 2.871094 8.09375 3.726562 C 8.078125 4.925781 7.679688 5.605469 6.929688 5.777344 L 6.914062 6.757812 C 8.1875 6.453125 8.84375 5.441406 8.867188 3.734375 C 8.878906 2.960938 8.679688 2.273438 8.273438 1.699219 C 7.867188 1.113281 7.265625 0.804688 6.4375 0.796875 C 5.3125 0.78125 4.527344 1.675781 4.089844 3.453125 Z M 4.089844 3.453125 "/></g></g></g><g fill="#545454" fill-opacity="1"><g transform="translate(158.221192, 198.852217)"><g><path d="M 11.574219 -39.449219 C 11.574219 -47.164062 13.101562 -49.273438 16.230469 -49.128906 L 16.230469 -49.785156 L 0 -49.785156 L 0 -49.128906 C 3.128906 -49.273438 4.65625 -47.164062 4.65625 -39.449219 L 4.65625 -10.261719 C 4.65625 -2.546875 3.128906 -0.507812 0 -0.65625 L 0 0 L 37.917969 0 L 42.140625 -13.101562 L 41.484375 -13.101562 C 38.792969 -6.40625 30.859375 -1.308594 23.726562 -1.308594 L 11.574219 -1.308594 Z M 11.574219 -39.449219 "/></g></g></g><g fill="#545454" fill-opacity="1"><g transform="translate(174.978317, 229.206328)"><g><path d="M 11.574219 -10.261719 L 11.574219 -21.179688 C 14.339844 -25.039062 18.195312 -23.070312 21.761719 -21.90625 C 28.167969 -19.722656 32.535156 -21.324219 35.007812 -28.53125 L 34.425781 -28.820312 C 31.660156 -24.601562 27.65625 -26.636719 24.089844 -27.875 C 18.269531 -29.839844 14.121094 -28.75 11.574219 -23.21875 L 11.574219 -48.472656 L 24.820312 -48.472656 C 30.714844 -48.472656 37.628906 -44.398438 39.886719 -38.792969 L 40.539062 -38.792969 L 37.484375 -49.785156 L 0 -49.785156 L 0 -49.128906 C 3.128906 -49.273438 4.65625 -47.164062 4.65625 -39.449219 L 4.65625 -10.261719 C 4.65625 -2.546875 3.128906 -0.507812 0 -0.65625 L 0 0 L 16.230469 0 L 16.230469 -0.65625 C 13.101562 -0.507812 11.574219 -2.546875 11.574219 -10.261719 Z M 11.574219 -10.261719 "/></g></g></g></svg>